# xmcd CD database file
#
# Track frame offsets:
#	150
#	18637
#	34812
#	46537
#	68414
#	83895
#	102180
#	125444
#	139445
#	155226
#	169549
#	185606
#
# Disc length: 3127 seconds
#
# Revision: 1
# Processed by: cddbd v1.5.1PL0 Copyright (c) Steve Scherf et al.
# Submitted via: CDex 1.51
#
DISCID=9c0c350c
DTITLE=The Coal Porters - The Gram Parsons Tribute Concert
DYEAR=1998
DGENRE=Country
TTITLE0=Luxury Liner
TTITLE1=Hickory Wind
TTITLE2=One Hundred Years From Now
TTITLE3=Drug Store Truck Driving Man
TTITLE4=(Sweet) Mental Revenge
TTITLE5=Sin City
TTITLE6=(Return of The) Grievous Angel
TTITLE7=Wheels
TTITLE8=In My Hour Of Darkness
TTITLE9=Older Guys
TTITLE10=Hot Burrito #2
TTITLE11=Six Days On The Road
EXTD=YEAR: 1998
EXTT0=
EXTT1=
EXTT2=
EXTT3=
EXTT4=
EXTT5=
EXTT6=
EXTT7=
EXTT8=
EXTT9=
EXTT10=
EXTT11=
PLAYORDER=
